# xmcd CD database file
#
# Track frame offsets:
#	150
#	18278
#	34632
#	54395
#	76084
#	95686
#	116368
#	134466
#	160128
#	176576
#
# Disc length: 2695 seconds
#
# Revision: 0
# Processed by: cddbd v1.5.2PL0 Copyright (c) Steve Scherf et al.
# Submitted via: CDex 1.51
#
DISCID=710a850a
DTITLE=Duo Gadjo and their Hot Friends - Meet me in Paris
DYEAR=2008
DGENRE=Jazz
TTITLE0=La Foule
TTITLE1=Me Myself and I
TTITLE2=Jardin d'Hiver
TTITLE3=La Vie En Rose
TTITLE4=I Got It Bad
TTITLE5=Avalon
TTITLE6=Sous Le Ciel De Paris
TTITLE7=Les Feuilles Mortes
TTITLE8=Nobody's Bizness
TTITLE9=Stardust
EXTD=YEAR: 2008
EXTT0=
EXTT1=
EXTT2=
EXTT3=
EXTT4=
EXTT5=
EXTT6=
EXTT7=
EXTT8=
EXTT9=
PLAYORDER=
